HIERARCHY
ROOT Hips
{
	OFFSET -0.001795 -0.223333 0.028219
	CHANNELS 6 Xposition Yposition Zposition Zrotation Yrotation Xrotation 
	JOINT LeftUpLeg
	{
		OFFSET 0.069520 -0.091406 -0.006815
		CHANNELS 3 Zrotation Yrotation Xrotation
		JOINT LeftLeg
		{
			OFFSET 0.034277 -0.375199 -0.004496
			CHANNELS 3 Zrotation Yrotation Xrotation
			JOINT LeftFoot
			{
				OFFSET -0.013596 -0.397961 -0.043693
				CHANNELS 3 Zrotation Yrotation Xrotation
				JOINT LeftToe
				{
					OFFSET 0.026358 -0.055791 0.119288
					CHANNELS 3 Zrotation Yrotation Xrotation
					End Site
					{
						OFFSET 0.000000 0.000000 0.000000
					}
				}
			}
		}
	}
	JOINT RightUpLeg
	{
		OFFSET -0.067670 -0.090522 -0.004320
		CHANNELS 3 Zrotation Yrotation Xrotation
		JOINT RightLeg
		{
			OFFSET -0.038290 -0.382569 -0.008850
			CHANNELS 3 Zrotation Yrotation Xrotation
			JOINT RightFoot
			{
				OFFSET 0.015774 -0.398415 -0.042312
				CHANNELS 3 Zrotation Yrotation Xrotation
				JOINT RightToe
				{
					OFFSET -0.025372 -0.048144 0.123348
					CHANNELS 3 Zrotation Yrotation Xrotation
					End Site
					{
						OFFSET 0.000000 0.000000 0.000000
					}
				}
			}
		}
	}
	JOINT Spine
	{
		OFFSET -0.002533 0.108963 -0.026696
		CHANNELS 3 Zrotation Yrotation Xrotation
		JOINT Spine1
		{
			OFFSET 0.005487 0.135180 0.001092
			CHANNELS 3 Zrotation Yrotation Xrotation
			JOINT Spine2
			{
				OFFSET 0.001457 0.052922 0.025425
				CHANNELS 3 Zrotation Yrotation Xrotation
				JOINT Neck
				{
					OFFSET -0.002778 0.213870 -0.042857
					CHANNELS 3 Zrotation Yrotation Xrotation
					JOINT Head
					{
						OFFSET 0.005152 0.064970 0.051349
						CHANNELS 3 Zrotation Yrotation Xrotation
						End Site
						{
							OFFSET 0.000000 0.000000 0.000000
						}
					}
				}
				JOINT LeftShoulder
				{
					OFFSET 0.078845 0.121749 -0.034090
					CHANNELS 3 Zrotation Yrotation Xrotation
					JOINT LeftArm
					{
						OFFSET 0.090977 0.030469 -0.008868
						CHANNELS 3 Zrotation Yrotation Xrotation
						JOINT LeftForeArm
						{
							OFFSET 0.259612 -0.012772 -0.027456
							CHANNELS 3 Zrotation Yrotation Xrotation
							JOINT LeftHand
							{
								OFFSET 0.249234 0.008986 -0.001171
								CHANNELS 3 Zrotation Yrotation Xrotation
								End Site
								{
									OFFSET 0.000000 0.000000 0.000000
								}
							}
						}
					}
				}
				JOINT RightShoulder
				{
					OFFSET -0.081759 0.118833 -0.038615
					CHANNELS 3 Zrotation Yrotation Xrotation
					JOINT RightArm
					{
						OFFSET -0.096012 0.032551 -0.009143
						CHANNELS 3 Zrotation Yrotation Xrotation
						JOINT RightForeArm
						{
							OFFSET -0.253742 -0.013329 -0.021401
							CHANNELS 3 Zrotation Yrotation Xrotation
							JOINT RightHand
							{
								OFFSET -0.255298 0.007772 -0.005559
								CHANNELS 3 Zrotation Yrotation Xrotation
								End Site
								{
									OFFSET 0.000000 0.000000 0.000000
								}
							}
						}
					}
				}
			}
		}
	}
}
MOTION
Frames: 10
Frame Time: 0.050000
0.328672 0.951961 0.250618 -0.972435 6.846511 9.054327 5.661802 -0.884018 -13.356387 3.363729 -0.465245 2.113047 -0.224799 3.647362 8.351984 0.000000 0.000000 0.000000 -13.838527 -0.233605 -18.550562 -1.963188 0.746885 11.549818 -0.654890 -5.547524 13.414678 0.000000 0.000000 0.000000 -0.488488 -0.112058 3.365309 1.128942 -0.717060 2.564929 3.718907 -4.468705 5.382560 -3.952176 3.316418 -17.714937 0.000000 0.000000 0.000000 -3.995149 -4.167399 1.372033 -43.218444 -3.814721 -3.782017 -90.392872 -43.169185 47.455401 0.000000 0.000000 0.000000 3.408562 8.983869 3.015674 42.763784 5.173008 -2.397555 90.059073 43.872009 44.210434 0.000000 0.000000 0.000000 
0.301674 0.949350 0.251360 -0.684591 7.317198 9.591901 6.959441 -0.845068 -13.848016 3.369766 -0.403479 1.233827 0.040050 4.614838 9.481353 0.000000 0.000000 0.000000 -13.126782 -0.141793 -18.397892 -1.689443 0.666442 11.193190 -0.515511 -4.805666 11.763029 0.000000 0.000000 0.000000 -0.564532 -0.123968 3.802153 1.483483 -0.889667 2.433279 3.192742 -3.832331 5.703136 -3.676940 3.273966 -18.490528 0.000000 0.000000 0.000000 -3.977612 -4.594532 1.478241 -42.450326 -6.224967 -2.959806 -90.203592 -47.693778 51.629223 0.000000 0.000000 0.000000 3.539280 10.273504 3.588936 43.906457 7.988445 -1.508604 89.073465 47.890992 48.467449 0.000000 0.000000 0.000000 
0.271879 0.949604 0.250073 -0.747891 7.387524 9.442988 8.220965 -0.801218 -14.866533 3.878946 -0.535562 2.278235 0.057159 5.061076 10.537777 0.000000 0.000000 0.000000 -11.754641 0.038261 -18.952734 -1.434958 0.635426 11.949993 -0.902729 -5.139654 9.986993 0.000000 0.000000 0.000000 -0.119466 -0.236489 5.524662 1.590486 -0.906997 1.962457 3.260911 -4.015977 5.743920 -4.256928 3.602120 -20.341991 0.000000 0.000000 0.000000 -4.017605 -5.695639 1.921343 -44.307242 -10.293024 -1.652329 -83.807729 -53.449800 52.629551 0.000000 0.000000 0.000000 2.948445 13.153627 4.673317 44.658982 12.253939 -0.026736 85.188217 54.394432 52.225049 0.000000 0.000000 0.000000 
0.240545 0.950736 0.246707 -0.913046 7.644320 9.444003 9.818760 -0.712616 -15.467323 4.390286 -0.558885 1.805937 -1.109935 4.683559 14.480340 0.000000 0.000000 0.000000 -9.712881 0.323711 -19.394585 -1.980925 0.764887 12.327903 -0.767828 -4.657024 9.267349 0.000000 0.000000 0.000000 -0.012499 -0.345022 7.463319 2.881565 -1.510069 1.588110 2.460725 -3.447063 6.028845 -3.428156 3.278061 -21.989492 0.000000 0.000000 0.000000 -4.337399 -8.776822 3.065241 -44.699919 -16.649198 0.591795 -67.131691 -60.402260 45.758941 0.000000 0.000000 0.000000 3.216430 16.856914 6.207479 44.231354 19.111610 2.403353 71.350408 62.519315 49.624654 0.000000 0.000000 0.000000 
0.208591 0.952989 0.240684 -1.014344 8.329212 9.714234 11.634991 -0.637820 -17.267108 4.664597 -0.702835 3.224732 -2.217469 3.496906 15.703283 0.000000 0.000000 0.000000 -8.453131 0.489074 -20.112263 -1.386959 0.621061 12.407559 -0.845241 -4.459783 8.122184 0.000000 0.000000 0.000000 0.111442 -0.481025 9.562303 2.811423 -1.491173 1.710772 2.584222 -4.180217 6.164311 -3.774827 3.440939 -24.442166 0.000000 0.000000 0.000000 -3.543512 -12.108137 4.410858 -45.620387 -26.312764 4.346607 -29.718610 -61.604054 21.185264 0.000000 0.000000 0.000000 1.458865 21.036995 7.610968 44.901411 28.387649 5.930545 33.748329 65.529781 24.535789 0.000000 0.000000 0.000000 
0.176482 0.954607 0.232601 -1.089675 9.687270 10.008076 13.301451 -0.587643 -18.787810 4.825968 -0.745385 3.552562 -3.561629 3.087095 19.277922 0.000000 0.000000 0.000000 -6.720516 0.707145 -21.212680 -1.869410 0.727894 13.324314 -1.084448 -4.780389 7.940374 0.000000 0.000000 0.000000 0.236994 -0.662925 11.921246 3.184152 -1.690581 1.759138 2.242721 -4.699170 6.608419 -3.614701 3.399375 -25.637295 0.000000 0.000000 0.000000 -2.379213 -17.116731 6.280766 -42.717059 -36.640796 7.782584 -0.020450 -50.319999 2.359718 0.000000 0.000000 0.000000 0.468998 26.220376 9.458545 41.644750 39.347787 9.290305 -2.538192 54.225943 0.890178 0.000000 0.000000 0.000000 
0.144844 0.956052 0.223439 -1.158155 11.149148 10.779759 14.737101 -0.570738 -21.576350 5.076844 -0.888536 4.842700 -4.559939 2.586832 21.138756 0.000000 0.000000 0.000000 -5.360231 0.888223 -22.871271 -0.847490 0.453108 13.410704 -1.721650 -6.016332 8.145601 0.000000 0.000000 0.000000 0.549282 -0.914997 14.303032 2.672658 -1.416002 1.393635 2.350383 -5.165298 6.881783 -3.938641 3.605267 -28.184369 0.000000 0.000000 0.000000 0.745535 -21.726090 7.662444 -37.788432 -47.880433 10.496652 13.290738 -29.932722 -2.247398 0.000000 0.000000 0.000000 -4.357980 30.927007 10.210067 36.531686 53.392836 12.597308 -14.106672 29.975336 -2.453317 0.000000 0.000000 0.000000 
0.114938 0.956441 0.214423 -1.148942 12.089776 11.388065 16.294854 -0.483312 -24.445989 4.428639 -0.927879 6.328839 -4.826928 3.298537 23.630013 0.000000 0.000000 0.000000 -3.979449 1.114624 -24.846457 -0.350918 0.315083 14.591401 -2.037869 -6.606599 8.256565 0.000000 0.000000 0.000000 0.328480 -1.109945 16.837380 2.643059 -1.421698 1.518382 2.295572 -4.660265 6.583409 -4.296279 3.864155 -28.760165 0.000000 0.000000 0.000000 4.060967 -26.509096 8.796466 -28.163912 -55.605277 8.884278 14.846963 -12.247372 -1.060492 0.000000 0.000000 0.000000 -7.672192 34.907528 10.765807 21.090255 62.808637 7.676713 -13.035708 7.713038 -0.372807 0.000000 0.000000 0.000000 
0.088617 0.956242 0.207435 -0.889671 14.160589 12.262974 16.712370 -0.656304 -27.029584 3.692741 -0.939733 7.719587 -5.169650 3.292217 24.016830 0.000000 0.000000 0.000000 -3.474125 1.092729 -26.378860 0.795220 -0.042191 14.661039 -2.173591 -6.580799 7.615757 0.000000 0.000000 0.000000 0.703672 -1.439545 18.777181 2.100912 -1.100220 0.731556 2.132681 -4.515457 6.773425 -4.689711 4.168761 -29.513369 0.000000 0.000000 0.000000 7.526234 -30.069239 9.290077 -16.600363 -61.570180 4.200519 12.356054 0.006359 0.066423 0.000000 0.000000 0.000000 -12.878409 36.303486 9.770210 5.694067 67.813624 -0.451952 -7.542536 -7.129056 0.433940 0.000000 0.000000 0.000000 
0.066786 0.956374 0.202665 -0.750409 14.737447 12.445305 17.187347 -0.664521 -28.308454 3.489919 -1.022619 8.978490 -5.224808 3.302267 24.080235 0.000000 0.000000 0.000000 -2.272736 1.314478 -27.009483 0.642636 -0.017744 14.675990 -2.114603 -6.406286 7.667212 0.000000 0.000000 0.000000 0.402247 -1.524170 20.012418 1.705997 -0.894944 0.489199 1.982879 -3.451158 7.005124 -5.968697 4.898176 -27.685353 0.000000 0.000000 0.000000 9.169523 -33.898479 10.043431 -7.124758 -62.907850 -1.078467 11.699327 6.246563 0.479160 0.000000 0.000000 0.000000 -15.716808 37.465408 9.213216 -7.774042 67.125184 -8.274618 -2.586090 -15.001279 0.040449 0.000000 0.000000 0.000000 
